<svg width="640" height="384" viewBox="0 0 640 384" xmlns="http://www.w3.org/2000/svg"><title>google-scholar</title><g fill="none" fill-rule="evenodd"><g fill-rule="nonzero"><path d="M284.486 233h.83c2.879.064 5.71 1.24 7.745 3.322-.751.78-1.518 1.526-2.253 2.305-1.143-1.049-2.52-1.86-4.022-2.146-2.222-.477-4.616-.048-6.478 1.24-2.034 1.351-3.411 3.64-3.709 6.088-.328 2.416.345 4.96 1.894 6.835 1.486 1.828 3.755 2.973 6.103 3.052 2.19.128 4.475-.556 6.07-2.114 1.253-1.097 1.832-2.766 2.02-4.387-2.598 0-5.196.016-7.793 0v-3.275h10.938c.563 3.513-.25 7.471-2.88 9.983-1.752 1.78-4.177 2.83-6.65 3.036-2.394.239-4.866-.222-6.994-1.399a12.176 12.176 0 0 1-5.587-6.47c-.939-2.527-.954-5.388-.078-7.931a12.085 12.085 0 0 1 4.303-5.802c1.894-1.415 4.194-2.194 6.541-2.337z" fill="#3780FF"/><path d="M347 234h4v21.996c-1.327 0-2.673.016-4-.015.019-7.317 0-14.649 0-21.981z" fill="#38B137"/><path d="M303.44 242.137c2.169-.386 4.518.046 6.308 1.266 1.626 1.08 2.759 2.778 3.104 4.63.443 2.145-.115 4.491-1.593 6.189-1.593 1.898-4.205 2.917-6.75 2.763-2.333-.124-4.6-1.22-5.979-3.01-1.56-1.976-1.938-4.692-1.084-7.007.854-2.485 3.269-4.383 5.995-4.831zm.494 2.932a4.458 4.458 0 0 0-2.3 1.374c-1.593 1.79-1.494 4.708.263 6.374 1.002.957 2.513 1.405 3.909 1.143a4.41 4.41 0 0 0 3.055-2.115c1.084-1.837.772-4.368-.887-5.803-1.068-.926-2.628-1.312-4.04-.973z" fill="#FA3913"/><path d="M321.44 242.138c2.482-.448 5.194.2 7.052 1.838 3.024 2.547 3.353 7.319.772 10.252-1.561 1.853-4.092 2.872-6.59 2.764-2.384-.062-4.734-1.173-6.148-3.01-1.594-2.024-1.94-4.803-1.035-7.165.904-2.41 3.27-4.247 5.95-4.679zm.494 2.934a4.541 4.541 0 0 0-2.301 1.359c-1.578 1.76-1.513 4.632.18 6.315 1.003 1.004 2.564 1.498 4.01 1.22 1.283-.232 2.433-1.035 3.058-2.116 1.068-1.853.756-4.385-.92-5.82-1.069-.927-2.63-1.298-4.027-.958z" fill="#FCBD06"/><path d="M333.775 243.047c1.852-1.126 4.316-1.438 6.313-.469.628.266 1.143.719 1.643 1.172.016-.422 0-.86.016-1.297 1.079.016 2.158 0 3.253.016v13.786c-.016 2.08-.564 4.283-2.11 5.8-1.69 1.672-4.284 2.188-6.619 1.844-2.496-.36-4.67-2.126-5.637-4.361.967-.453 1.981-.813 2.98-1.235.563 1.282 1.707 2.376 3.14 2.626 1.434.25 3.092-.094 4.026-1.25.999-1.188.999-2.814.95-4.268-.74.704-1.594 1.329-2.624 1.563-2.239.61-4.703-.14-6.426-1.61-1.74-1.469-2.77-3.735-2.674-5.986.049-2.548 1.53-5.002 3.769-6.331zm3.334 2c-.983.157-1.9.689-2.529 1.423-1.514 1.75-1.514 4.549.016 6.268.87 1.016 2.271 1.58 3.624 1.438 1.272-.125 2.448-.906 3.076-1.985 1.063-1.829.886-4.314-.548-5.908-.885-.985-2.303-1.47-3.64-1.235z" fill="#3780FF"/><path d="M354.537 243.83c2.007-1.728 5.102-2.315 7.678-1.404 2.443.849 3.999 2.994 4.785 5.2-3.63 1.389-7.244 2.762-10.874 4.151.502.88 1.271 1.682 2.309 2.006 1.455.479 3.195.309 4.416-.586.485-.34.87-.787 1.238-1.22.92.572 1.84 1.127 2.76 1.698-1.304 1.806-3.496 3.071-5.855 3.272-2.61.293-5.387-.633-7.076-2.516-2.778-2.962-2.51-7.931.619-10.6zm1.79 2.855c-.57.756-.803 1.682-.787 2.592 2.426-.926 4.852-1.851 7.278-2.793-.402-.864-1.372-1.389-2.36-1.527-1.589-.263-3.245.524-4.131 1.728z" fill="#FA3913"/></g><path d="M267.132 300.928c0 2.976-1.092 5.367-3.277 7.172-2.217 1.773-4.908 2.66-8.075 2.66-2.818 0-5.304-.823-7.458-2.47-2.153-1.647-3.641-3.895-4.465-6.745l4.18-1.71c.286 1.013.681 1.932 1.188 2.755a8.949 8.949 0 0 0 1.781 2.114 8.074 8.074 0 0 0 2.256 1.377 6.91 6.91 0 0 0 2.613.499c1.995 0 3.626-.515 4.892-1.544 1.267-1.029 1.9-2.398 1.9-4.108 0-1.426-.522-2.645-1.567-3.658-.982-.982-2.818-1.932-5.51-2.85-2.723-.982-4.417-1.647-5.083-1.995-3.61-1.837-5.415-4.544-5.415-8.123 0-2.501.998-4.639 2.993-6.412 2.027-1.773 4.512-2.66 7.457-2.66 2.597 0 4.845.665 6.746 1.995 1.9 1.298 3.166 2.93 3.8 4.892l-4.086 1.71c-.38-1.266-1.132-2.32-2.256-3.158-1.124-.84-2.493-1.259-4.108-1.259-1.71 0-3.151.475-4.323 1.425-1.172.887-1.757 2.042-1.757 3.468 0 1.171.459 2.184 1.377 3.04 1.013.855 3.214 1.868 6.603 3.04 3.451 1.171 5.913 2.604 7.386 4.298 1.472 1.694 2.209 3.776 2.209 6.247zm15.153 9.832c-3.452 0-6.317-1.172-8.598-3.515-2.248-2.407-3.372-5.367-3.372-8.882 0-3.579 1.124-6.54 3.373-8.883 2.28-2.343 5.145-3.515 8.597-3.515 2.375 0 4.45.594 6.222 1.781 1.774 1.188 3.104 2.826 3.99 4.917l-3.99 1.662c-1.235-2.913-3.404-4.37-6.507-4.37-1.995 0-3.72.807-5.178 2.423-1.425 1.615-2.137 3.61-2.137 5.985 0 2.375.712 4.37 2.137 5.985 1.457 1.615 3.183 2.422 5.178 2.422 3.198 0 5.447-1.457 6.745-4.37l3.895 1.663c-.855 2.09-2.193 3.728-4.014 4.916-1.82 1.187-3.934 1.781-6.341 1.781zm14.155-34.77h4.37v10.735l-.19 3.23h.19c.665-1.14 1.686-2.09 3.064-2.85 1.377-.76 2.81-1.14 4.298-1.14 2.85 0 5.043.815 6.58 2.446 1.535 1.631 2.303 3.95 2.303 6.959V310h-4.37v-13.775c0-4.18-1.852-6.27-5.558-6.27-1.773 0-3.27.736-4.488 2.209-1.22 1.472-1.829 3.19-1.829 5.154V310h-4.37v-34.01zm24.415 22.373c0-3.579 1.124-6.54 3.373-8.883 2.28-2.343 5.145-3.515 8.597-3.515s6.302 1.172 8.55 3.515c2.28 2.343 3.42 5.304 3.42 8.882 0 3.61-1.14 6.571-3.42 8.883-2.248 2.343-5.098 3.515-8.55 3.515-3.452 0-6.317-1.172-8.597-3.515-2.249-2.343-3.373-5.304-3.373-8.882zm4.37 0c0 2.501.728 4.528 2.185 6.08 1.457 1.551 3.262 2.327 5.415 2.327s3.958-.776 5.415-2.327c1.457-1.552 2.185-3.579 2.185-6.08 0-2.47-.728-4.481-2.185-6.033-1.488-1.583-3.293-2.375-5.415-2.375s-3.927.792-5.415 2.375c-1.457 1.552-2.185 3.562-2.185 6.033zm27.93-22.373V310h-4.37v-34.01h4.37zm8.503 26.885c0 1.14.482 2.09 1.448 2.85.966.76 2.098 1.14 3.397 1.14 1.836 0 3.475-.68 4.916-2.043 1.44-1.361 2.161-2.96 2.161-4.797-1.362-1.077-3.262-1.615-5.7-1.615-1.773 0-3.254.427-4.441 1.282-1.188.856-1.781 1.916-1.781 3.183zm5.652-16.91c3.23 0 5.78.863 7.647 2.589 1.869 1.726 2.803 4.093 2.803 7.101V310h-4.18v-3.23h-.19c-1.805 2.66-4.212 3.99-7.22 3.99-2.565 0-4.71-.76-6.436-2.28-1.726-1.52-2.589-3.42-2.589-5.7 0-2.407.91-4.322 2.731-5.747 1.821-1.426 4.251-2.138 7.292-2.138 2.596 0 4.734.475 6.412 1.425v-.998c0-1.52-.602-2.81-1.805-3.87-1.203-1.062-2.612-1.592-4.227-1.592-2.439 0-4.37 1.03-5.796 3.087l-3.847-2.422c2.122-3.04 5.257-4.56 9.405-4.56zM387.07 310h-4.37v-23.275h4.18v3.8h.19c.443-1.235 1.354-2.288 2.731-3.159 1.378-.87 2.731-1.306 4.062-1.306 1.266 0 2.343.19 3.23.57l-1.33 4.228c-.539-.222-1.394-.333-2.565-.333-1.647 0-3.08.665-4.3 1.995-1.218 1.33-1.828 2.882-1.828 4.655V310z" fill="#55585D"/><path fill="#4285F4" fill-rule="nonzero" d="M320 167.78l-64-52.113L320 65z"/><path fill="#356AC3" fill-rule="nonzero" d="M320 167.78l64-52.113L320 65z"/><circle fill="#A0C3FF" fill-rule="nonzero" cx="320" cy="155.667" r="37.333"/><path d="M286.26 139.667c5.991-12.613 18.847-21.334 33.74-21.334s27.749 8.72 33.74 21.334h-67.48z" fill="#76A7FA" fill-rule="nonzero"/></g></svg>